<svg xmlns="http://www.w3.org/2000/svg" width="16" height="16" fill="none" viewBox="0 0 16 16"><path fill="#19191c" d="M13.246 2.413c-.17.418-.406.823-.68 1.189A6.34 6.34 0 0 0 3.6 3.445c-2.512 2.43-2.59 6.438-.157 8.946.079.091.17.17.262.248l.235.209c2.67 2.246 6.674 1.906 8.925-.758a6.3 6.3 0 0 0 1.479-3.63c.183-1.58-.301-3.618-1.1-6.047M4.622 12.704a.54.54 0 0 1-.838-.68.54.54 0 0 1 .76-.077.55.55 0 0 1 .078.757m8.585-1.894c-1.558 2.077-4.908 1.372-7.04 1.476 0 0-.38.026-.76.078 0 0 .144-.065.327-.13 1.505-.523 2.212-.627 3.128-1.097 1.714-.875 3.428-2.795 3.769-4.78-.655 1.907-2.644 3.552-4.45 4.218-1.243.457-3.48.901-3.48.901l-.092-.052C3.09 10.68 3.039 7.39 5.813 6.331c1.217-.47 2.368-.209 3.69-.522 1.4-.327 3.023-1.371 3.677-2.743.733 2.207 1.623 5.629.027 7.744"/></svg>